#!OML:ASF E:\Steps\Project 1\Capture day 1\Session 2\Subject.ASF
:FULLY-SPECIFIED
:DEGREES
213
root 16.6901 16.1139 21.0829 -164.832 -14.5411 168.359
lowerback -18.1003 -0.961774 -5.47512
upperback 3.26243 0.0824765 -1.03437
thorax 13.9324 -0.371671 1.96914
lowerneck -2.97041 3.91317 -1.60264
upperneck 13.5379 4.86385 0.879595
head 4.98116 2.16896 0.820841
rclavicle -3.85642e-014 -7.15625e-015
rhumerus -34.0243 -16.9443 -77.2459
rradius 33.7439
rwrist -1.67924
rhand -9.90285 -410.971
rfingers 7.12502
rthumb 16.0772 -440.324
lclavicle -3.85642e-014 -7.15625e-015
lhumerus -33.4607 8.98664 77.8428
lradius 21.0139
lwrist -5.45173
lhand -20.8462 -12.6458
lfingers 7.12502
lthumb 5.52283 17.2622
rfemur -16.7396 1.29412 14.1699
rtibia 28.4398
rfoot -32.99 -12.868
rtoes -16.4776
lfemur -79.9996 3.5687 -18.2512
ltibia 87.9704
lfoot -28.6413 53.8549
ltoes -23.6266
214
root 16.6759 16.0999 21.0495 -164.98 -14.4729 168.126
lowerback -18.1022 -0.996065 -5.39555
upperback 3.22701 0.0302903 -1.1778
thorax 13.8951 -0.382005 1.74658
lowerneck -2.86735 4.03284 -1.57585
upperneck 13.6415 4.99899 0.966665
head 4.995 2.23536 0.851232
rclavicle 2.42517e-014 3.57812e-014
rhumerus -34.1845 -17.2227 -77.1872
rradius 33.4471
rwrist -1.38949
rhand -9.44365 -413.491
rfingers 7.12502
rthumb 16.5193 -442.808
lclavicle 2.42517e-014 3.57812e-014
lhumerus -33.6357 9.11564 77.4262
lradius 21.0056
lwrist -5.55602
lhand -20.7531 -12.5652
lfingers 7.12502
lthumb 5.61269 17.3404
rfemur -16.7017 1.19985 13.8953
rtibia 29.1457
rfoot -33.5052 -12.7956
rtoes -16.3856
lfemur -79.7842 3.92101 -17.8911
ltibia 86.2433
lfoot -19.5654 43.0159
ltoes -24.8004
215
root 16.6576 16.0841 21.0058 -165.244 -14.2588 167.961
lowerback -18.1245 -0.980597 -5.43559
upperback 3.27165 0.0634846 -1.17353
thorax 13.959 -0.372384 1.78326
lowerneck -2.85399 4.014 -1.59018
upperneck 13.6402 4.98354 0.886295
head 4.994 2.22217 0.825173
rclavicle -4.96962e-014 -9.54166e-015
rhumerus -34.3548 -16.8534 -77.3292
rradius 34.0346
rwrist -1.42405
rhand -10.1526 -412.342
rfingers 7.12502
rthumb 15.8367 -441.715
lclavicle -4.96962e-014 -9.54166e-015
lhumerus -33.6603 9.52983 77.1555
lradius 20.9567
lwrist -5.46865
lhand -19.9948 -13.04
lfingers 7.12502
lthumb 6.34486 16.845
rfemur -16.4153 1.35043 13.674
rtibia 29.5385
rfoot -33.8812 -12.5445
rtoes -15.3213
lfemur -79.345 4.41547 -17.4386
ltibia 84.1178
lfoot -13.6782 31.4363
ltoes -23.4091
216
root 16.6318 16.0629 20.9582 -165.33 -13.9451 167.909
lowerback -18.4683 -0.920264 -5.24749
upperback 3.2451 0.125549 -1.18777
thorax 14.1278 -0.330929 1.67803
lowerneck -2.80793 3.95216 -1.47722
upperneck 14.2482 4.88573 0.758349
head 4.67404 2.16627 0.69397
rclavicle 1.88845e-014 -6.36111e-015
rhumerus -34.5294 -16.7961 -77.2471
rradius 34.1213
rwrist -1.47804
rhand -8.95089 -412.258
rfingers 7.12502
rthumb 16.9937 -441.534
lclavicle 1.88845e-014 -6.36111e-015
lhumerus -33.7141 9.95539 76.911
lradius 20.9229
lwrist -5.35123
lhand -19.4463 -13.4313
lfingers 7.12502
lthumb 6.87432 16.4371
rfemur -16.3484 1.36135 13.518
rtibia 29.8824
rfoot -34.0966 -12.4023
rtoes -16.0938
lfemur -79.1507 4.96837 -16.8853
ltibia 81.9351
lfoot -8.49547 19.6339
ltoes -22.1584
217
root 16.6178 16.0442 20.9307 -165.251 -13.9103 167.653
lowerback -18.488 -0.99549 -5.34001
upperback 3.06121 0.0408067 -1.22768
thorax 13.9294 -0.369837 1.66178
lowerneck -2.64898 4.0493 -1.4744
upperneck 14.4796 4.99011 0.757877
head 4.71718 2.20498 0.697043
rclavicle 2.96189e-014 2.54444e-014
rhumerus -34.7892 -17.144 -76.884
rradius 33.8049
rwrist -1.60278
rhand -8.98251 -411.059
rfingers 7.12502
rthumb 16.9633 -440.338
lclavicle 2.96189e-014 2.54444e-014
lhumerus -33.9525 10.0133 76.7994
lradius 21.0043
lwrist -5.41078
lhand -20.0779 -14.3385
lfingers 7.12502
lthumb 6.26462 15.5488
rfemur -16.5783 1.11934 13.2141
rtibia 30.6223
rfoot -34.5829 -12.3593
rtoes -16.9827
lfemur -79.0734 5.23927 -16.5703
ltibia 79.884
lfoot -3.41418 7.67578
ltoes -23.4691
218
root 16.6008 16.0285 20.8857 -165.601 -13.7914 167.518
lowerback -18.3582 -0.975999 -5.32314
upperback 3.04429 0.0568898 -1.26857
thorax 13.8305 -0.35708 1.61179
lowerneck -2.4998 4.13499 -1.36687
upperneck 14.6039 5.0921 0.663771
head 4.73465 2.24716 0.653384
rclavicle -1.59028e-015 1.35174e-014
rhumerus -35.15 -16.7693 -77.1022
rradius 34.3631
rwrist -1.4856
rhand -8.6944 -414.359
rfingers 7.12502
rthumb 17.2406 -443.614
lclavicle -1.59028e-015 1.35174e-014
lhumerus -34.294 9.86208 76.6698
lradius 21.2261
lwrist -5.42298
lhand -20.5411 -15.1798
lfingers 7.12502
lthumb 5.81737 14.7203
rfemur -16.2325 1.17769 13.0601
rtibia 31.167
rfoot -35.1767 -12.1922
rtoes -16.9037
lfemur -78.3981 5.70875 -16.1143
ltibia 77.8512
lfoot -2.06109 7.25408
ltoes -24.8563
219
root 16.5742 16.0119 20.8428 -165.749 -13.5566 167.333
lowerback -18.5051 -1.05972 -5.28392
upperback 3.12982 -0.0551712 -1.20893
thorax 14.027 -0.412724 1.62109
lowerneck -2.6397 4.24094 -1.63197
upperneck 14.3118 5.31073 0.468378
head 4.66513 2.34315 0.646587
rclavicle 2.22639e-014 -2.22639e-014
rhumerus -34.944 -16.431 -77.0408
rradius 34.4284
rwrist -1.63064
rhand -7.88026 -415.6
rfingers 7.12502
rthumb 18.0241 -444.785
lclavicle 2.22639e-014 -2.22639e-014
lhumerus -34.3906 10.6718 76.4239
lradius 21.198
lwrist -5.84106
lhand -20.1608 -16.1228
lfingers 7.12502
lthumb 6.18459 13.7669
rfemur -16.0305 1.11933 12.7465
rtibia 31.4319
rfoot -35.4053 -11.9839
rtoes -17.3718
lfemur -77.9288 6.06605 -15.6035
ltibia 75.9625
lfoot -1.03986 7.18303
ltoes -23.2714
220
root 16.55 15.9936 20.8017 -165.911 -13.519 167.204
lowerback -18.5719 -1.1053 -5.22497
upperback 3.0457 -0.133118 -1.17493
thorax 13.9726 -0.442818 1.60328
lowerneck -2.40667 4.40604 -1.71372
upperneck 14.0267 5.53227 0.351381
head 5.05361 2.42958 0.684322
rclavicle -5.56597e-015 -1.27222e-014
rhumerus -35.193 -16.5377 -76.6196
rradius 34.3316
rwrist -2.18352
rhand -8.36633 -414.491
rfingers 7.12502
rthumb 17.5563 -443.719
lclavicle -5.56597e-015 -1.27222e-014
lhumerus -34.6473 10.9224 76.2429
lradius 21.0302
lwrist -6.26836
lhand -20.0398 -16.8631
lfingers 7.12502
lthumb 6.30137 13.0232
rfemur -15.997 0.955617 12.5885
rtibia 32.1598
rfoot -35.7379 -12.22
rtoes -19.3383
lfemur -77.4897 6.1587 -14.9169
ltibia 74.1362
lfoot 0.0608444 7.18182
ltoes -20.9969
221
root 16.5427 15.9684 20.7353 -166.843 -14.3949 167.53
lowerback -18.1277 -1.39121 -5.02022
upperback 3.21789 -0.606704 -0.935769
thorax 13.9419 -0.653224 1.61708
lowerneck -2.26912 4.52325 -1.6706
upperneck 14.6114 5.67699 0.259641
head 4.69668 2.48818 0.599781
rclavicle 2.127e-014 -7.95139e-015
rhumerus -35.4459 -16.2374 -76.5797
rradius 34.4848
rwrist -2.25441
rhand -7.03984 -415.823
rfingers 7.12502
rthumb 18.8325 -444.932
lclavicle 2.127e-014 -7.95139e-015
lhumerus -34.8528 10.764 76.2342
lradius 21.0345
lwrist -6.25604
lhand -20.2143 -16.9113
lfingers 7.12502
lthumb 6.13292 12.9799
rfemur -14.4348 0.858602 13.2582
rtibia 31.9137
rfoot -35.92 -13.1454
rtoes -20.9643
lfemur -76.4566 5.67969 -13.5711
ltibia 72.294
lfoot 1.60207 6.73454
ltoes -22.5817
222
root 16.5271 15.9465 20.6715 -167.583 -15.0667 167.616
lowerback -17.8344 -1.6658 -4.92041
upperback 3.38084 -1.02096 -0.822361
thorax 13.9869 -0.84264 1.5662
lowerneck -2.2102 4.43791 -1.4483
upperneck 14.7655 5.56947 -0.0593078
head 4.75114 2.41858 0.461676
rclavicle -9.93923e-016 -2.06736e-014
rhumerus -35.6002 -16.1056 -76.5392
rradius 34.4786
rwrist -2.07876
rhand -8.36458 -413.809
rfingers 7.12502
rthumb 17.558 -443.037
lclavicle -9.93923e-016 -2.06736e-014
lhumerus -34.954 10.9308 76.0488
lradius 20.9935
lwrist -6.32004
lhand -19.9385 -17.0056
lfingers 7.12502
lthumb 6.39921 12.8778
rfemur -13.0966 0.667959 13.5265
rtibia 31.7012
rfoot -36.0881 -13.7525
rtoes -21.8226
lfemur -75.4999 5.15272 -12.5344
ltibia 70.3795
lfoot 2.91511 6.43795
ltoes -23.2846
223
root 16.4977 15.9328 20.6221 -167.75 -14.7541 167.234
lowerback -17.985 -1.66902 -4.9952
upperback 3.43114 -0.98437 -0.948725
thorax 14.1339 -0.82999 1.47265
lowerneck -2.20925 4.37036 -1.45474
upperneck 14.7154 5.49073 -0.148484
head 4.73858 2.37522 0.43117
rclavicle -1.86858e-014 -3.18055e-014
rhumerus -35.6879 -16.0805 -76.478
rradius 34.5487
rwrist -1.97541
rhand -9.49795 -412.501
rfingers 7.12502
rthumb 16.4671 -441.822
lclavicle -1.86858e-014 -3.18055e-014
lhumerus -34.92 11.2407 75.843
lradius 20.8699
lwrist -6.58441
lhand -19.7919 -17.0069
lfingers 7.12502
lthumb 6.54071 12.8721
rfemur -12.858 0.615388 12.9785
rtibia 32.1227
rfoot -36.2273 -13.8138
rtoes -23.195
lfemur -74.7365 5.26738 -12.131
ltibia 68.3137
lfoot 3.83253 6.63599
ltoes -20.7742
